Title: Katmandú, un espejo en el cielo aka Kathmandu Lullaby

Plot: Laia, a young Catalan teacher, moves to Kathmandu in the early 90's, to volunteer in a local school.

She will soon discover extreme poverty and a devastatingly bleak educational system that leaves out the most needy.

She initially protests and later decides to get married out of convenience, so as to legalize her situation and take on an ambitious educational project in the slums of Kathmandu.

She immediately realizes that she can't do it all by herself. She also discovers a beautiful gift she had never expected: to fall in love with the stranger she marries.

She finds herself torn between her love life and her commitment to the children she helps. Laia and Sharmila, another young teacher who becomes her dearest friend, work side by side to launch a new project that will distance Laia from her partner beyond repair. It will, however, always unite her to Sharmila and small Kushila, in a personal journey into the depths of the Nepalese society and also to her most inner self.

Audio: English / Spanish / Nepali

Subtitles: ENGLISH and SPANISH

IMDB: http://www.imdb.com/title/tt1839688/


General
Complete name                    : Katmandu.Un.Espejo.En.El.Cielo.2012.ORIGINAL.DVDRip.AC3.HORiZON-ArtSubs
Format                           : AVI
Format/Info                      : Audio Video Interleave
File size                        : 1.47 GiB
Duration                         : 1h 39mn
Overall bit rate                 : 2 118 Kbps
Writing application              : FairUse Wizard - http://fairusewizard.com
Writing library                  : The best and REALLY easy backup tool

Video
ID                               : 0
Format                           : MPEG-4 Visual
Format profile                   : Advanced Simple@L5
Format settings, BVOP            : Yes
Format settings, QPel            : No
Format settings, GMC             : No warppoints
Format settings, Matrix          : Default (H.263)
Muxing mode                      : Packed bitstream
Codec ID                         : XVID
Codec ID/Hint                    : XviD
Duration                         : 1h 39mn
Bit rate                         : 1 660 Kbps
Width                            : 688 pixels
Height                           : 368 pixels
Display aspect ratio             : 1.870
Frame rate                       : 25.000 fps
Color space                      : YUV
Chroma subsampling               : 4:2:0
Bit depth                        : 8 bits
Scan type                        : Progressive
Compression mode                 : Lossy
Bits/(Pixel*Frame)               : 0.262
Stream size                      : 1.15 GiB (78%)
Writing library                  : XviD 1.1.0 (UTC 2005-11-22)

Audio
ID                               : 1
Format                           : AC-3
Format/Info                      : Audio Coding 3
Mode extension                   : CM (complete main)
Codec ID                         : 2000
Duration                         : 1h 39mn
Bit rate mode                    : Constant
Bit rate                         : 448 Kbps
Channel(s)                       : 6 channels
Channel positions                : Front: L C R, Side: L R, LFE
Sampling rate                    : 48.0 KHz
Bit depth                        : 16 bits
Compression mode                 : Lossy
Stream size                      : 318 MiB (21%)
Alignment                        : Split accross interleaves
Interleave, duration             : 40 ms (1.00 video frame)
Interleave, preload duration     : 500 ms
